<svg width="180" height="50" viewBox="0 0 180 50" fill="none" xmlns="http://www.w3.org/2000/svg">
<g clip-path="url(#clip0_108_5541)">
<mask id="mask0_108_5541" style="mask-type:luminance" maskUnits="userSpaceOnUse" x="0" y="0" width="40" height="49">
<path d="M39.1707 0H0V48.67H39.1707V0Z" fill="white"/>
</mask>
<g mask="url(#mask0_108_5541)">
<path d="M27.0647 40.6316L24.0717 48.6574C23.5078 48.6574 22.9974 48.6873 22.4964 48.6574C17.4958 48.3226 12.7239 46.4366 8.84486 43.2619C4.96579 40.0873 2.17252 35.7819 0.853777 30.9449C0.661593 30.2342 0.52297 29.5077 0.360717 28.7876C0.315034 28.548 0.132302 27.1991 0.0929203 26.7468C-0.19439 23.5939 0.16585 20.4154 1.1515 17.4068C1.67449 15.8136 2.29042 14.2551 2.8843 12.6793C4.09831 9.40887 5.31862 6.14005 6.54523 2.87279C6.86029 2.03129 7.17534 1.18821 7.47937 0.341984C7.49963 0.238189 7.55781 0.145662 7.64255 0.0824415C7.7273 0.0192214 7.83255 -0.0101599 7.93777 2.58539e-05C10.5543 0.00948093 13.1756 2.58541e-05 15.7937 0.00948093C15.9118 0.00948093 16.0299 0.0252394 16.1969 0.0378461C16.1512 0.195431 16.1229 0.319922 16.0772 0.441263C14.4463 4.80425 12.8153 9.16725 11.1844 13.5302C10.5543 15.2274 9.90056 16.9215 9.29408 18.6265C8.36388 21.0044 8.02385 23.5725 8.30314 26.1106C8.58244 28.6488 9.47272 31.0814 10.8977 33.1999C12.1187 35.1496 13.7537 36.8067 15.6866 38.0534C17.6195 39.3002 19.803 40.1062 22.0821 40.4142C22.8532 40.5177 23.6295 40.5772 24.4072 40.5922C25.1319 40.6206 25.8565 40.5922 26.5827 40.6001C26.7245 40.6001 26.8647 40.6174 27.0663 40.6301" fill="black"/>
<path d="M27.5074 16.2609C26.9891 17.6461 26.4835 18.9714 25.9967 20.3014C25.5099 21.6314 24.9759 22.9457 24.5033 24.3592H33.1028C33.024 24.7878 30.3192 31.9233 30.2357 32.1723C30.2149 32.2642 30.1602 32.3449 30.0826 32.3984C30.0049 32.4518 29.91 32.4741 29.8167 32.4606C29.3063 32.448 28.7959 32.4606 28.2856 32.4606C27.0915 32.4606 25.8959 32.4732 24.7018 32.4606C23.3772 32.4722 22.0695 32.1621 20.8909 31.5572C19.7124 30.9522 18.698 30.0703 17.9349 28.9871C17.1718 27.9039 16.6827 26.6518 16.5095 25.338C16.3363 24.0242 16.4842 22.688 16.9405 21.4439C17.5312 19.8318 18.1408 18.226 18.7457 16.6171C18.8875 16.2389 18.8922 16.2389 19.2908 16.2373H27.1435C27.2364 16.2373 27.3278 16.2515 27.5042 16.2657" fill="black"/>
<path d="M33.5564 0.0411273L30.5634 8.07794C30.7635 8.0937 30.9147 8.11733 31.0675 8.11733C32.6428 8.11733 34.2133 8.11733 35.7791 8.11733H38.6792C38.8241 8.11733 38.9691 8.12994 39.1675 8.13782C38.988 8.86429 38.6808 9.5025 38.4492 10.1644C38.2177 10.8262 37.9514 11.4975 37.7025 12.1641L36.9559 14.1639L36.2045 16.1794H27.5704L30.5807 8.12837C30.3445 8.11103 30.1759 8.09054 30.0089 8.08897H22.4823C22.3247 8.08897 22.1672 8.07636 21.9624 8.06691C22.0176 7.88096 22.0506 7.74071 22.1011 7.60518C23.0084 5.17943 23.9173 2.75421 24.8279 0.329507C24.9476 0.0143379 24.9523 0.00488281 25.291 0.00488281C27.9364 0.00488281 30.5813 0.00488281 33.2256 0.00488281C33.317 0.00488281 33.4084 0.0222171 33.5612 0.0379756" fill="black"/>
</g>
<path d="M65.1659 41.421L64.9768 45.4284H58.4395V27.2069H61.7648V23.0861H50.3914V27.2069H52.9607V45.4268H50.3914V49.5477H69.6633L70.0413 41.4588L65.1659 41.421ZM83.0783 23.0876H72.4594V27.2085H75.0286V45.4284H72.4594V49.5492H83.0783V45.4284H80.5074V27.2069H83.0783V23.0876ZM106.619 23.0876H86.818V27.2085H89.3872V45.4284H86.818V49.5492H97.4369V45.4284H94.866V39.7207H102.838V35.5999H94.866V27.2085H101.744V30.2026H106.618L106.619 23.0876ZM129.027 23.0876H109.228V27.2085H111.795V45.4284H109.228V49.5492H119.847V45.4284H117.274V39.7207H125.247V35.5999H117.274V27.2085H124.152V30.2026H129.026L129.027 23.0876ZM130.351 23.0876V30.1947H135.262V27.2006H138.399V45.4205H135.866V49.5414H146.447V45.4205H143.951V27.2069H147.126V30.201H152V23.0939L130.351 23.0876ZM153.665 36.1293C153.665 44.3316 158.841 49.9968 166.853 49.9968C174.787 49.9968 180.003 44.3647 180.003 36.1293C180.003 27.9649 174.827 22.6338 166.853 22.6338C158.879 22.6338 153.665 27.9633 153.665 36.1293ZM173.956 36.1672C173.956 41.4588 171.278 45.4646 166.738 45.4646C162.17 45.4646 159.671 41.3816 159.671 36.279C159.671 30.9495 162.392 27.1691 166.889 27.1691C171.347 27.1706 173.956 30.9495 173.956 36.1672Z" fill="black"/>
<path d="M54.9833 0.735654H50.3914V13.0099H51.6878V9.13491H54.9833C58.1039 9.13491 59.9958 7.55906 59.9958 4.94474C59.9958 2.33041 58.1039 0.735654 54.9833 0.735654ZM54.9408 7.99557H51.6878V1.85766H54.9408C57.395 1.85766 58.6915 2.97966 58.6915 4.94316C58.6994 6.87357 57.4029 7.99557 54.9408 7.99557ZM66.2465 13.0982C66.8687 13.1196 67.4887 13.0126 68.0677 12.7839C68.6468 12.5552 69.1726 12.2096 69.6124 11.7688C70.0522 11.328 70.3965 10.8013 70.624 10.2215C70.8514 9.64177 70.9571 9.02138 70.9345 8.39899C70.9568 7.77817 70.8509 7.15942 70.6236 6.58133C70.3963 6.00323 70.0523 5.47818 69.6132 5.03891C69.1741 4.59964 68.6493 4.25558 68.0714 4.02817C67.4935 3.80077 66.875 3.69489 66.2544 3.71715C65.6329 3.69457 65.0134 3.80008 64.4344 4.02714C63.8554 4.25421 63.3293 4.59797 62.8888 5.03705C62.4482 5.47614 62.1026 6.00118 61.8735 6.57954C61.6444 7.15789 61.5366 7.7772 61.5569 8.39899C61.5363 9.02166 61.6437 9.64194 61.8725 10.2214C62.1013 10.8009 62.4465 11.3271 62.8869 11.7677C63.3273 12.2082 63.8534 12.5536 64.4326 12.7825C65.0119 13.0113 65.6319 13.1188 66.2544 13.0982H66.2465ZM66.2465 11.9951C65.7797 12.0035 65.3161 11.9149 64.8853 11.7349C64.4544 11.555 64.0655 11.2876 63.7432 10.9496C63.4209 10.6117 63.1722 10.2105 63.0128 9.77146C62.8534 9.33243 62.7868 8.86509 62.8171 8.39899C62.7869 7.93248 62.8539 7.46477 63.0138 7.02549C63.1737 6.58621 63.423 6.18493 63.746 5.84704C64.0689 5.50915 64.4585 5.24202 64.89 5.06256C65.3215 4.8831 65.7856 4.79522 66.2528 4.80449C66.7192 4.7955 67.1823 4.88371 67.6128 5.06351C68.0432 5.24331 68.4316 5.51075 68.7531 5.84884C69.0746 6.18693 69.3223 6.58825 69.4803 7.02729C69.6384 7.46633 69.7034 7.93347 69.6711 8.39899C69.7033 8.86438 69.6384 9.33138 69.4804 9.77031C69.3225 10.2092 69.075 10.6105 68.7536 10.9485C68.4323 11.2866 68.0441 11.5541 67.6139 11.734C67.1836 11.9139 66.7206 12.0023 66.2544 11.9935L66.2465 11.9951ZM85.605 3.78649L82.6782 11.6247L79.7324 3.78649H78.6644L75.7029 11.6247L72.8091 3.78649H71.6166L75.0822 13.0099H76.2558L79.1653 5.44586L82.0748 13.0099H83.2484L86.7361 3.78649H85.605ZM96.4019 8.39899C96.4417 7.79174 96.3551 7.18283 96.1474 6.61084C95.9397 6.03885 95.6155 5.51624 95.1954 5.07611C94.7752 4.63599 94.2683 4.28794 93.7067 4.05401C93.1451 3.82008 92.5411 3.70538 91.9329 3.71715C91.3236 3.7074 90.7188 3.82318 90.1562 4.05731C89.5936 4.29144 89.0852 4.6389 88.6626 5.07806C88.24 5.51722 87.9122 6.03869 87.6998 6.61002C87.4873 7.18135 87.3947 7.7903 87.4276 8.39899C87.4085 9.03327 87.5217 9.66457 87.76 10.2527C87.9982 10.8408 88.3563 11.3728 88.8114 11.8149C89.2665 12.2569 89.8086 12.5994 90.4033 12.8203C90.9979 13.0412 91.632 13.1359 92.2653 13.0982C92.9328 13.1243 93.5979 13.0027 94.213 12.742C94.8282 12.4813 95.3782 12.088 95.8238 11.5901L95.1228 10.7832C94.7693 11.1787 94.3335 11.4919 93.8462 11.701C93.3588 11.9101 92.8315 12.0099 92.3015 11.9935C91.8527 12.0221 91.4027 11.9616 90.9774 11.8157C90.5521 11.6697 90.1598 11.441 89.8231 11.1429C89.4864 10.8447 89.2119 10.4829 89.0155 10.0783C88.819 9.67364 88.7044 9.23415 88.6784 8.78507H96.3972C96.3846 8.64482 96.4019 8.50457 96.4019 8.39899ZM91.9329 4.784C92.7722 4.76509 93.5855 5.07615 94.1981 5.65038C94.8107 6.22462 95.1738 7.01625 95.2094 7.85532H88.6721C88.7065 7.01862 89.0671 6.22866 89.6765 5.65461C90.286 5.08056 91.0959 4.76805 91.9329 4.784ZM100.135 5.59083V3.78649H98.9428V13.0099H100.187V8.31074C100.125 7.87504 100.16 7.43098 100.29 7.0104C100.419 6.58982 100.64 6.20315 100.937 5.8781C101.234 5.55306 101.599 5.2977 102.005 5.13034C102.412 4.96297 102.851 4.88775 103.291 4.91007C103.379 4.91007 103.483 4.9274 103.588 4.9274V3.71715C102.891 3.64493 102.188 3.78537 101.572 4.12004C100.955 4.4547 100.455 4.96638 100.135 5.59083ZM113.79 8.39584C113.829 7.78871 113.742 7.18001 113.534 6.60828C113.326 6.03656 113.002 5.51426 112.581 5.07446C112.161 4.63466 111.654 4.28693 111.093 4.05329C110.531 3.81965 109.927 3.70519 109.319 3.71715C108.71 3.7074 108.105 3.82318 107.542 4.05731C106.98 4.29144 106.471 4.6389 106.049 5.07806C105.626 5.51722 105.299 6.03869 105.086 6.61002C104.874 7.18135 104.781 7.7903 104.814 8.39899C104.795 9.03327 104.908 9.66457 105.146 10.2527C105.385 10.8408 105.743 11.3728 106.198 11.8149C106.653 12.2569 107.195 12.5994 107.79 12.8203C108.384 13.0412 109.018 13.1359 109.652 13.0982C110.319 13.1243 110.984 13.0027 111.599 12.742C112.214 12.4813 112.764 12.088 113.21 11.5901L112.511 10.7832C112.157 11.1787 111.721 11.4919 111.234 11.701C110.747 11.9101 110.219 12.0099 109.689 11.9935C109.241 12.0221 108.791 11.9616 108.365 11.8157C107.94 11.6697 107.548 11.441 107.211 11.1429C106.874 10.8447 106.6 10.4829 106.403 10.0783C106.207 9.67364 106.092 9.23415 106.066 8.78507H113.785C113.772 8.64482 113.79 8.50457 113.79 8.39899V8.39584ZM109.319 4.784C110.158 4.76509 110.972 5.07615 111.584 5.65038C112.197 6.22462 112.56 7.01625 112.596 7.85532H106.058C106.093 7.01862 106.453 6.22866 107.063 5.65461C107.672 5.08056 108.482 4.76805 109.319 4.784ZM123.497 -0.00341797V5.54041C123.119 4.96199 122.599 4.49047 121.986 4.17117C121.374 3.85187 120.69 3.69552 119.999 3.71715C119.383 3.69721 118.77 3.80531 118.197 4.03463C117.625 4.26394 117.106 4.60949 116.674 5.04945C116.242 5.48941 115.906 6.01423 115.687 6.59075C115.468 7.16728 115.37 7.78298 115.401 8.39899C115.37 9.01583 115.467 9.63239 115.686 10.2099C115.905 10.7874 116.241 11.3134 116.673 11.7548C117.105 12.1961 117.623 12.5433 118.196 12.7745C118.768 13.0057 119.382 13.1159 119.999 13.0982C120.709 13.1248 121.413 12.9617 122.038 12.6257C122.664 12.2897 123.188 11.793 123.558 11.1867V13.0099H124.751V-0.000265755L123.497 -0.00341797ZM120.099 11.9935C119.632 12.0025 119.168 11.9145 118.736 11.7349C118.305 11.5554 117.916 11.2882 117.593 10.9504C117.27 10.6125 117.021 10.2113 116.861 9.77211C116.701 9.33294 116.634 8.86537 116.665 8.39899C116.634 7.93248 116.701 7.46477 116.861 7.02549C117.021 6.58621 117.271 6.18493 117.593 5.84704C117.916 5.50915 118.306 5.24202 118.738 5.06256C119.169 4.8831 119.633 4.79522 120.1 4.80449C120.566 4.79717 121.029 4.88652 121.458 5.06689C121.888 5.24726 122.276 5.51475 122.597 5.85248C122.918 6.19021 123.166 6.59085 123.324 7.02914C123.483 7.46742 123.549 7.93385 123.519 8.39899C123.549 8.86427 123.483 9.33082 123.324 9.76922C123.165 10.2076 122.918 10.6083 122.596 10.9461C122.275 11.2838 121.887 11.5513 121.457 11.7316C121.027 11.9118 120.565 12.001 120.099 11.9935ZM137.557 3.71715C136.866 3.69388 136.179 3.84944 135.565 4.16881C134.951 4.48819 134.429 4.96059 134.051 5.54041V-0.000265755H132.806V13.0099H133.999V11.1867C134.369 11.793 134.893 12.2897 135.519 12.6257C136.144 12.9617 136.848 13.1248 137.557 13.0982C138.174 13.115 138.788 13.0042 139.359 12.7726C139.931 12.541 140.449 12.1936 140.88 11.7524C141.311 11.3111 141.646 10.7855 141.865 10.2084C142.083 9.63131 142.18 9.01529 142.149 8.39899C142.18 7.78353 142.083 7.16837 141.864 6.59229C141.646 6.01621 141.31 5.4917 140.879 5.05184C140.447 4.61197 139.929 4.26628 139.358 4.03657C138.786 3.80686 138.173 3.6981 137.557 3.71715ZM137.469 11.9935C137.002 12.0028 136.538 11.9149 136.106 11.7354C135.675 11.556 135.285 11.2888 134.962 10.9509C134.639 10.6131 134.39 10.2118 134.23 9.77249C134.07 9.33321 134.003 8.8655 134.034 8.39899C134.003 7.93248 134.07 7.46477 134.23 7.02549C134.39 6.58621 134.639 6.18493 134.962 5.84704C135.285 5.50915 135.675 5.24202 136.106 5.06256C136.538 4.8831 137.002 4.79522 137.469 4.80449C137.936 4.79665 138.4 4.88549 138.83 5.06544C139.261 5.2454 139.65 5.51256 139.973 5.85014C140.296 6.18773 140.545 6.58843 140.705 7.02708C140.866 7.46572 140.934 7.93281 140.905 8.39899C140.934 8.86517 140.866 9.33226 140.705 9.7709C140.545 10.2095 140.296 10.6103 139.973 10.9478C139.65 11.2854 139.261 11.5526 138.83 11.7325C138.4 11.9125 137.936 12.0013 137.469 11.9935ZM150.949 3.78807L147.483 11.6263L144.018 3.78807H142.721L146.841 12.9942L146.437 13.8877C145.911 15.0443 145.35 15.4304 144.526 15.4304C144.213 15.4342 143.902 15.3739 143.613 15.2534C143.324 15.1328 143.062 14.9544 142.844 14.7292L142.255 15.6573C142.863 16.2224 143.669 16.5248 144.498 16.4988C145.813 16.4988 146.795 15.9205 147.565 14.1146L152.174 3.78649L150.949 3.78807Z" fill="black"/>
</g>
<defs>
<clipPath id="clip0_108_5541">
<rect width="180" height="50" fill="white"/>
</clipPath>
</defs>
</svg>
